<svg version="1.1" id="Layer_1" xmlns="http://www.w3.org/2000/svg" xmlns:xlink="http://www.w3.org/1999/xlink" x="0px" y="0px"
	 width="100%" viewBox="0 0 2048 550" enable-background="new 0 0 2048 550" xml:space="preserve">
<path fill="#000000" opacity="1.000000" stroke="none" 
	d="
M1470.000000,551.000000 
	C980.000000,551.000000 490.500000,551.000000 1.000000,551.000000 
	C1.000000,367.666656 1.000000,184.333328 1.000000,1.000000 
	C683.666687,1.000000 1366.333374,1.000000 2049.000000,1.000000 
	C2049.000000,184.333328 2049.000000,367.666656 2049.000000,551.000000 
	C1856.166626,551.000000 1663.333374,551.000000 1470.000000,551.000000 
M301.607483,496.965881 
	C305.807190,499.316833 309.820190,502.123505 314.240967,503.934937 
	C328.604919,509.820496 342.931396,515.893616 357.621033,520.863831 
	C376.045227,527.097595 395.362213,529.257446 414.694794,529.811035 
	C426.832733,530.158691 439.138855,529.485901 451.160217,527.788635 
	C465.330444,525.787903 479.503662,522.995300 493.266022,519.099243 
	C517.260498,512.306580 539.175049,501.042877 559.460754,486.339935 
	C574.370056,475.533752 587.644836,463.092651 599.258667,449.018585 
	C612.641357,432.800964 623.303406,414.737488 630.516418,394.896454 
	C637.121704,376.727081 641.987244,358.117645 641.999329,338.563843 
	C642.003357,332.069366 642.529480,325.521637 641.882629,319.092224 
	C640.761963,307.952881 639.579773,296.742188 637.212585,285.823975 
	C633.666199,269.467255 627.408691,254.085220 619.230164,239.333160 
	C610.745300,224.028717 600.800110,209.819138 588.624817,197.493500 
	C578.435364,187.178192 566.828796,178.212967 555.496948,169.087982 
	C540.313660,156.861649 524.852722,144.976303 509.393646,133.097275 
	C496.163971,122.931381 482.694519,113.077477 469.467407,102.908302 
	C455.426361,92.113350 441.617889,81.015862 427.577179,70.220451 
	C409.713074,56.485424 391.281677,43.450214 373.905487,29.129734 
	C357.571838,15.668510 335.943573,14.018705 319.011780,25.100155 
	C311.805756,29.816315 307.350189,36.655968 306.944214,45.776340 
	C306.512634,55.472118 312.868500,61.153915 319.184784,66.518867 
	C330.842651,76.420929 342.948761,85.795624 354.877197,95.378670 
	C363.120453,102.001099 371.421051,108.552933 379.615601,115.234962 
	C384.814178,119.473991 389.865204,123.893990 395.887207,129.000000 
	C349.231049,129.000000 304.079651,128.870987 258.929352,129.038940 
	C219.519165,129.185547 180.088348,129.008606 140.711334,130.318390 
	C124.582771,130.854889 111.722534,139.760361 104.660866,154.936050 
	C98.674141,167.801666 102.757195,181.064026 114.242256,187.365005 
	C120.092674,190.574692 127.340302,192.675232 133.987778,192.758163 
	C173.309784,193.248688 212.641022,193.000000 251.969147,193.000000 
	C253.642868,193.000000 255.316605,193.000000 256.990326,193.000000 
	C256.172333,195.178421 255.132462,196.131790 254.017441,196.987167 
	C249.126801,200.738892 244.183487,204.422455 239.315659,208.203323 
	C224.049194,220.060913 208.866074,232.026535 193.541641,243.808487 
	C177.092102,256.455505 160.470978,268.879303 144.013397,281.515961 
	C127.529083,294.173157 111.190819,307.020447 94.722031,319.697998 
	C74.928322,334.935120 55.042568,350.052643 35.237743,365.275360 
	C19.773815,377.161499 10.465166,391.940735 12.953939,412.411255 
	C14.113375,421.947815 18.802988,428.997192 26.665737,434.226379 
	C34.950901,439.736511 43.936874,441.124481 53.767464,440.132874 
	C62.327431,439.269440 70.381821,437.065369 77.218475,432.138245 
	C87.231644,424.921906 96.689034,416.931671 106.345680,409.224121 
	C116.392242,401.205353 126.459167,393.209930 136.397659,385.058533 
	C146.752045,376.565979 156.913330,367.838196 167.251831,359.325958 
	C177.686966,350.734161 188.211243,342.249847 198.756836,333.793732 
	C200.770020,332.179413 203.064194,330.915497 204.836182,329.748474 
	C204.409210,404.663574 240.719528,457.457825 301.607483,496.965881 
M849.556763,252.961197 
	C809.920166,233.089554 771.033508,231.736465 733.000183,257.607666 
	C733.000183,256.864044 733.000122,256.056763 733.000122,255.249512 
	C733.000061,236.916351 732.923767,218.582611 733.068298,200.250580 
	C733.095154,196.835144 732.109924,195.551056 728.611755,194.863708 
	C721.690735,193.503769 714.929077,191.341599 708.087891,189.563934 
	C698.197388,186.993958 688.294739,184.470932 678.209839,181.879715 
	C678.209839,259.765259 678.209839,337.195801 678.209839,414.786621 
	C696.492615,414.786621 714.565186,414.786621 733.198486,414.786621 
	C733.198486,410.087250 733.198486,405.575928 733.198486,400.701599 
	C750.619263,413.666565 760.283142,416.930695 776.709167,419.080139 
	C792.864563,421.194183 809.009277,420.867218 824.569153,416.547150 
	C847.903687,410.068573 867.142822,397.473511 879.797607,375.856232 
	C888.711487,360.629333 891.468506,344.111481 891.873535,326.989136 
	C892.003113,321.511322 890.921570,315.953064 889.948669,310.511261 
	C887.622498,297.499573 882.605591,285.610138 874.558228,275.029083 
	C867.828369,266.180389 859.666992,258.956665 849.556763,252.961197 
M1583.500000,415.000000 
	C1593.262695,415.000000 1603.025513,415.000000 1612.808105,415.000000 
	C1612.808105,337.006744 1612.808105,259.584290 1612.808105,182.185638 
	C1612.287476,182.110275 1611.929321,181.952667 1611.633179,182.030731 
	C1595.638062,186.247330 1579.706665,190.730789 1563.617188,194.547989 
	C1559.493286,195.526382 1558.896362,197.163101 1558.927856,200.789810 
	C1559.085449,218.948929 1559.005493,237.110184 1558.987549,255.270660 
	C1558.986328,256.486389 1558.806641,257.701935 1558.686279,259.215149 
	C1557.794556,258.810120 1557.291138,258.716278 1556.979492,258.420410 
	C1544.244141,246.330933 1528.613037,240.452255 1511.561768,239.216263 
	C1497.520630,238.198425 1483.400757,238.520187 1469.395752,241.856552 
	C1449.293091,246.645615 1431.969604,256.042053 1418.865234,271.867035 
	C1400.124390,294.498413 1396.355957,321.366119 1401.380981,349.250336 
	C1404.887329,368.707947 1414.551270,385.323029 1430.458618,398.176788 
	C1448.074707,412.411285 1468.196045,418.945038 1490.357300,419.886353 
	C1498.906494,420.249512 1507.536621,419.645355 1516.081787,418.916870 
	C1525.596436,418.105713 1534.709351,415.443420 1542.957397,410.489258 
	C1548.277710,407.293762 1553.355103,403.693817 1559.045898,399.942596 
	C1559.045898,405.077637 1559.045898,409.944397 1559.045898,415.000000 
	C1567.215332,415.000000 1574.857666,415.000000 1583.500000,415.000000 
M1834.000000,322.761841 
	C1833.334351,318.268707 1832.773804,313.757019 1831.984741,309.285645 
	C1828.410278,289.029175 1820.053589,271.452820 1804.240601,257.620453 
	C1787.671509,243.126678 1767.861816,237.211700 1746.674683,235.157516 
	C1737.097656,234.228973 1727.299438,234.347336 1717.704712,235.180298 
	C1707.756470,236.043930 1697.718994,237.562714 1688.102539,240.192307 
	C1670.972534,244.876465 1656.299438,254.131195 1644.801758,267.794281 
	C1630.603638,284.666534 1625.902588,304.979858 1625.137451,326.369843 
	C1624.912231,332.666229 1626.170410,339.043671 1627.031738,345.345306 
	C1629.081055,360.338196 1634.666138,373.994476 1644.269043,385.648224 
	C1663.183105,408.601562 1689.008179,417.544250 1717.535400,419.822327 
	C1727.359497,420.606812 1737.362305,419.563995 1747.258057,418.948120 
	C1762.594727,417.993622 1777.241699,413.888824 1790.316895,405.944550 
	C1798.720947,400.838348 1806.234375,394.143280 1813.676636,387.623352 
	C1818.012695,383.824585 1817.420776,382.761749 1812.173340,379.988800 
	C1808.485596,378.040131 1804.917480,375.864868 1801.294922,373.792847 
	C1791.419189,368.144104 1781.542969,362.496460 1771.645386,356.836060 
	C1761.543213,379.291718 1736.883301,386.377594 1714.090698,379.565857 
	C1697.448853,374.592316 1685.998901,357.677948 1687.458252,341.959412 
	C1736.157104,341.959412 1784.892944,341.959412 1834.000000,341.959412 
	C1834.000000,335.630280 1834.000000,329.673523 1834.000000,322.761841 
M1151.453735,395.028900 
	C1155.104492,391.447144 1158.755127,387.865417 1163.058838,383.642944 
	C1147.108398,374.418182 1131.891846,365.617920 1116.639160,356.796753 
	C1106.692383,379.184845 1083.060913,386.848206 1059.074219,379.723053 
	C1042.397583,374.769318 1031.702759,359.461731 1032.411743,341.972717 
	C1081.132690,341.972717 1129.870605,341.972717 1179.454224,341.972717 
	C1178.954468,333.379852 1178.394043,325.193176 1178.021484,316.997955 
	C1177.447144,304.359863 1173.598145,292.581421 1167.959351,281.486145 
	C1158.234741,262.351410 1142.886597,249.203613 1122.696045,242.078323 
	C1104.591187,235.689041 1085.894775,232.923035 1066.664429,235.010620 
	C1058.091553,235.941284 1049.346924,236.201920 1041.000977,238.144531 
	C1012.052124,244.882629 989.736633,260.174805 977.752014,288.562958 
	C969.556396,307.976013 969.010498,328.125244 972.345398,348.262543 
	C975.377625,366.572571 984.307617,382.224304 998.307495,394.936981 
	C1011.117493,406.569122 1026.209839,413.077789 1042.751953,417.039062 
	C1056.353394,420.296082 1070.185059,420.627258 1083.953369,419.811615 
	C1093.762207,419.230530 1103.613892,417.505920 1113.183838,415.201233 
	C1127.285278,411.805237 1139.805054,404.867554 1151.453735,395.028900 
M1246.000000,404.476929 
	C1246.333374,376.395630 1246.221924,348.299103 1247.184204,320.239380 
	C1247.678955,305.814606 1254.817871,294.239197 1267.700317,287.117065 
	C1278.592773,281.095154 1290.346680,279.614899 1302.834717,280.835724 
	C1317.107544,282.230957 1327.368896,289.925201 1329.865845,304.018982 
	C1331.569092,313.632080 1332.706787,323.459351 1332.862671,333.210571 
	C1333.270264,358.702637 1333.000000,384.205597 1333.000000,409.704193 
	C1333.000000,411.449158 1333.000000,413.194122 1333.000000,414.635559 
	C1351.463501,414.635559 1369.203979,414.635559 1387.000000,414.635559 
	C1387.000000,379.107422 1387.117676,343.942932 1386.909180,308.780426 
	C1386.862793,300.949371 1386.088013,293.062256 1384.925293,285.309418 
	C1381.241821,260.746033 1364.258789,246.211945 1341.999756,240.117996 
	C1329.753052,236.765167 1317.265869,235.421646 1304.323608,236.794113 
	C1287.624268,238.565018 1272.672852,243.860519 1259.413696,254.078445 
	C1255.112427,257.393097 1250.790283,260.680695 1245.757812,264.531586 
	C1245.757812,260.371185 1245.757812,257.285400 1245.757812,254.291962 
	C1227.684082,254.291962 1209.944824,254.291962 1192.293213,254.291962 
	C1192.293213,307.987732 1192.293213,361.391022 1192.293213,414.703339 
	C1210.326660,414.703339 1228.065308,414.703339 1246.000000,414.703339 
	C1246.000000,411.428925 1246.000000,408.447632 1246.000000,404.476929 
M1901.000000,366.500000 
	C1901.000000,361.670166 1900.800903,356.830444 1901.040894,352.012573 
	C1901.579834,341.191437 1901.735596,330.300171 1903.178955,319.589935 
	C1904.545044,309.452393 1909.528198,300.409821 1917.116821,293.619812 
	C1926.773926,284.978912 1938.709595,281.673615 1951.655518,281.978790 
	C1957.071533,282.106476 1962.493042,282.000000 1967.853760,282.000000 
	C1967.853760,266.362579 1967.853760,251.404633 1967.853760,236.404144 
	C1940.367065,230.307785 1919.256836,241.233963 1900.979492,262.327423 
	C1900.979492,258.603424 1900.979492,256.501373 1900.979492,254.343292 
	C1882.495361,254.343292 1864.299316,254.343292 1846.306396,254.343292 
	C1846.306396,308.064941 1846.306396,361.442963 1846.306396,414.703308 
	C1864.677490,414.703308 1882.740967,414.703308 1901.000000,414.703308 
	C1901.000000,398.771637 1901.000000,383.135834 1901.000000,366.500000 
M958.000000,215.500427 
	C958.000000,209.068253 958.000000,202.636093 958.000000,196.290955 
	C939.683899,196.290955 921.945801,196.290955 904.288208,196.290955 
	C904.288208,269.316162 904.288208,342.050049 904.288208,414.709076 
	C922.316101,414.709076 940.054199,414.709076 958.000000,414.709076 
	C958.000000,348.445648 958.000000,282.472931 958.000000,215.500427 
M2037.043457,220.335571 
	C2036.955322,219.013885 2037.190308,217.565353 2036.728882,216.390198 
	C2032.325195,205.173523 2020.589966,199.349884 2009.148560,203.367065 
	C2000.420898,206.431396 1993.265259,217.913788 1995.057617,225.979111 
	C1997.701294,237.874847 2005.901855,246.508804 2021.004639,244.036407 
	C2031.484253,242.320847 2038.739868,232.355576 2037.043457,220.335571 
z"/>
<path fill="#FFFFFF" opacity="1.000000" stroke="none" 
	d="
M301.307129,496.737518 
	C240.719528,457.457825 204.409210,404.663574 204.836182,329.748474 
	C203.064194,330.915497 200.770020,332.179413 198.756836,333.793732 
	C188.211243,342.249847 177.686966,350.734161 167.251831,359.325958 
	C156.913330,367.838196 146.752045,376.565979 136.397659,385.058533 
	C126.459167,393.209930 116.392242,401.205353 106.345680,409.224121 
	C96.689034,416.931671 87.231644,424.921906 77.218475,432.138245 
	C70.381821,437.065369 62.327431,439.269440 53.767464,440.132874 
	C43.936874,441.124481 34.950901,439.736511 26.665737,434.226379 
	C18.802988,428.997192 14.113375,421.947815 12.953939,412.411255 
	C10.465166,391.940735 19.773815,377.161499 35.237743,365.275360 
	C55.042568,350.052643 74.928322,334.935120 94.722031,319.697998 
	C111.190819,307.020447 127.529083,294.173157 144.013397,281.515961 
	C160.470978,268.879303 177.092102,256.455505 193.541641,243.808487 
	C208.866074,232.026535 224.049194,220.060913 239.315659,208.203323 
	C244.183487,204.422455 249.126801,200.738892 254.017441,196.987167 
	C255.132462,196.131790 256.172333,195.178421 256.990326,193.000000 
	C255.316605,193.000000 253.642868,193.000000 251.969147,193.000000 
	C212.641022,193.000000 173.309784,193.248688 133.987778,192.758163 
	C127.340302,192.675232 120.092674,190.574692 114.242256,187.365005 
	C102.757195,181.064026 98.674141,167.801666 104.660866,154.936050 
	C111.722534,139.760361 124.582771,130.854889 140.711334,130.318390 
	C180.088348,129.008606 219.519165,129.185547 258.929352,129.038940 
	C304.079651,128.870987 349.231049,129.000000 395.887207,129.000000 
	C389.865204,123.893990 384.814178,119.473991 379.615601,115.234962 
	C371.421051,108.552933 363.120453,102.001099 354.877197,95.378670 
	C342.948761,85.795624 330.842651,76.420929 319.184784,66.518867 
	C312.868500,61.153915 306.512634,55.472118 306.944214,45.776340 
	C307.350189,36.655968 311.805756,29.816315 319.011780,25.100155 
	C335.943573,14.018705 357.571838,15.668510 373.905487,29.129734 
	C391.281677,43.450214 409.713074,56.485424 427.577179,70.220451 
	C441.617889,81.015862 455.426361,92.113350 469.467407,102.908302 
	C482.694519,113.077477 496.163971,122.931381 509.393646,133.097275 
	C524.852722,144.976303 540.313660,156.861649 555.496948,169.087982 
	C566.828796,178.212967 578.435364,187.178192 588.624817,197.493500 
	C600.800110,209.819138 610.745300,224.028717 619.230164,239.333160 
	C627.408691,254.085220 633.666199,269.467255 637.212585,285.823975 
	C639.579773,296.742188 640.761963,307.952881 641.882629,319.092224 
	C642.529480,325.521637 642.003357,332.069366 641.999329,338.563843 
	C641.987244,358.117645 637.121704,376.727081 630.516418,394.896454 
	C623.303406,414.737488 612.641357,432.800964 599.258667,449.018585 
	C587.644836,463.092651 574.370056,475.533752 559.460754,486.339935 
	C539.175049,501.042877 517.260498,512.306580 493.266022,519.099243 
	C479.503662,522.995300 465.330444,525.787903 451.160217,527.788635 
	C439.138855,529.485901 426.832733,530.158691 414.694794,529.811035 
	C395.362213,529.257446 376.045227,527.097595 357.621033,520.863831 
	C342.931396,515.893616 328.604919,509.820496 314.240967,503.934937 
	C309.820190,502.123505 305.807190,499.316833 301.307129,496.737518 
M552.002991,285.479736 
	C546.378296,263.648651 534.853699,245.480667 518.619873,229.907806 
	C509.345978,221.011566 498.987213,213.861816 487.709686,208.061203 
	C472.707489,200.344788 456.797577,194.961349 439.840454,194.126541 
	C426.876892,193.488327 413.677460,192.667999 400.902802,194.353348 
	C382.514069,196.779358 365.193787,203.501495 349.260834,213.304932 
	C330.588196,224.794067 315.165344,239.588654 304.637421,258.933044 
	C292.275299,281.647797 287.345032,305.637451 291.828552,331.615295 
	C295.631805,353.651642 305.184998,372.635040 319.745056,389.055176 
	C335.880402,407.251892 355.898163,419.953064 379.267212,426.998657 
	C396.487976,432.190582 413.932800,434.917145 432.133667,433.216095 
	C443.516510,432.152222 454.603271,430.410217 465.506439,427.131958 
	C493.077087,418.842407 515.640442,403.178375 532.983032,380.326477 
	C540.645813,370.229462 547.141907,359.226746 550.031799,346.626709 
	C551.938538,338.313049 553.332031,329.882660 555.018921,321.517365 
	C557.443848,309.491699 554.942139,297.898163 552.002991,285.479736 
z"/>
<path fill="#FFFFFF" opacity="1.000000" stroke="none" 
	d="
M849.932800,252.994934 
	C859.666992,258.956665 867.828369,266.180389 874.558228,275.029083 
	C882.605591,285.610138 887.622498,297.499573 889.948669,310.511261 
	C890.921570,315.953064 892.003113,321.511322 891.873535,326.989136 
	C891.468506,344.111481 888.711487,360.629333 879.797607,375.856232 
	C867.142822,397.473511 847.903687,410.068573 824.569153,416.547150 
	C809.009277,420.867218 792.864563,421.194183 776.709167,419.080139 
	C760.283142,416.930695 750.619263,413.666565 733.198486,400.701599 
	C733.198486,405.575928 733.198486,410.087250 733.198486,414.786621 
	C714.565186,414.786621 696.492615,414.786621 678.209839,414.786621 
	C678.209839,337.195801 678.209839,259.765259 678.209839,181.879715 
	C688.294739,184.470932 698.197388,186.993958 708.087891,189.563934 
	C714.929077,191.341599 721.690735,193.503769 728.611755,194.863708 
	C732.109924,195.551056 733.095154,196.835144 733.068298,200.250580 
	C732.923767,218.582611 733.000061,236.916351 733.000122,255.249512 
	C733.000122,256.056763 733.000183,256.864044 733.000183,257.607666 
	C771.033508,231.736465 809.920166,233.089554 849.932800,252.994934 
M771.863403,282.001526 
	C769.395142,282.670349 766.912170,283.289886 764.461243,284.017090 
	C756.888062,286.264282 749.960693,290.100464 744.841980,295.891785 
	C732.850403,309.459167 730.353760,325.933044 734.251282,342.920776 
	C737.347473,356.415741 745.039917,367.133026 758.466003,373.193665 
	C772.887390,379.703583 787.379639,379.907593 802.134399,375.348663 
	C813.625671,371.798065 822.515137,364.782684 827.647522,353.724426 
	C833.822815,340.419281 834.444824,326.803955 830.111755,312.663269 
	C825.531372,297.715698 815.448059,288.740448 801.125000,284.062317 
	C791.912781,281.053436 782.370728,280.554382 771.863403,282.001526 
z"/>
<path fill="#FFFFFF" opacity="1.000000" stroke="none" 
	d="
M1583.000000,415.000000 
	C1574.857666,415.000000 1567.215332,415.000000 1559.045898,415.000000 
	C1559.045898,409.944397 1559.045898,405.077637 1559.045898,399.942596 
	C1553.355103,403.693817 1548.277710,407.293762 1542.957397,410.489258 
	C1534.709351,415.443420 1525.596436,418.105713 1516.081787,418.916870 
	C1507.536621,419.645355 1498.906494,420.249512 1490.357300,419.886353 
	C1468.196045,418.945038 1448.074707,412.411285 1430.458618,398.176788 
	C1414.551270,385.323029 1404.887329,368.707947 1401.380981,349.250336 
	C1396.355957,321.366119 1400.124390,294.498413 1418.865234,271.867035 
	C1431.969604,256.042053 1449.293091,246.645615 1469.395752,241.856552 
	C1483.400757,238.520187 1497.520630,238.198425 1511.561768,239.216263 
	C1528.613037,240.452255 1544.244141,246.330933 1556.979492,258.420410 
	C1557.291138,258.716278 1557.794556,258.810120 1558.686279,259.215149 
	C1558.806641,257.701935 1558.986328,256.486389 1558.987549,255.270660 
	C1559.005493,237.110184 1559.085449,218.948929 1558.927856,200.789810 
	C1558.896362,197.163101 1559.493286,195.526382 1563.617188,194.547989 
	C1579.706665,190.730789 1595.638062,186.247330 1611.633179,182.030731 
	C1611.929321,181.952667 1612.287476,182.110275 1612.808105,182.185638 
	C1612.808105,259.584290 1612.808105,337.006744 1612.808105,415.000000 
	C1603.025513,415.000000 1593.262695,415.000000 1583.000000,415.000000 
M1512.750000,378.000092 
	C1515.987671,377.664612 1519.296875,377.646454 1522.450317,376.936493 
	C1533.655640,374.413574 1543.188599,368.684906 1549.750366,359.359619 
	C1558.879028,346.386780 1560.249146,331.475555 1556.853271,316.414154 
	C1553.265381,300.500824 1543.420288,289.431091 1527.686646,284.367676 
	C1518.841187,281.521027 1509.738770,280.639496 1500.350830,281.911316 
	C1486.734009,283.755951 1475.088867,288.874756 1467.003662,300.358124 
	C1459.291016,311.312592 1457.444336,323.511505 1458.859619,336.769501 
	C1460.730835,354.297211 1468.888794,366.954315 1485.109741,373.945099 
	C1493.579346,377.595215 1502.546875,379.197113 1512.750000,378.000092 
z"/>
<path fill="#FFFFFF" opacity="1.000000" stroke="none" 
	d="
M1834.000000,323.239319 
	C1834.000000,329.673523 1834.000000,335.630280 1834.000000,341.959412 
	C1784.892944,341.959412 1736.157104,341.959412 1687.458252,341.959412 
	C1685.998901,357.677948 1697.448853,374.592316 1714.090698,379.565857 
	C1736.883301,386.377594 1761.543213,379.291718 1771.645386,356.836060 
	C1781.542969,362.496460 1791.419189,368.144104 1801.294922,373.792847 
	C1804.917480,375.864868 1808.485596,378.040131 1812.173340,379.988800 
	C1817.420776,382.761749 1818.012695,383.824585 1813.676636,387.623352 
	C1806.234375,394.143280 1798.720947,400.838348 1790.316895,405.944550 
	C1777.241699,413.888824 1762.594727,417.993622 1747.258057,418.948120 
	C1737.362305,419.563995 1727.359497,420.606812 1717.535400,419.822327 
	C1689.008179,417.544250 1663.183105,408.601562 1644.269043,385.648224 
	C1634.666138,373.994476 1629.081055,360.338196 1627.031738,345.345306 
	C1626.170410,339.043671 1624.912231,332.666229 1625.137451,326.369843 
	C1625.902588,304.979858 1630.603638,284.666534 1644.801758,267.794281 
	C1656.299438,254.131195 1670.972534,244.876465 1688.102539,240.192307 
	C1697.718994,237.562714 1707.756470,236.043930 1717.704712,235.180298 
	C1727.299438,234.347336 1737.097656,234.228973 1746.674683,235.157516 
	C1767.861816,237.211700 1787.671509,243.126678 1804.240601,257.620453 
	C1820.053589,271.452820 1828.410278,289.029175 1831.984741,309.285645 
	C1832.773804,313.757019 1833.334351,318.268707 1834.000000,323.239319 
M1771.002197,294.615723 
	C1767.632935,285.654907 1761.401001,279.643372 1752.602905,275.877686 
	C1743.141357,271.827972 1733.613281,270.257751 1723.297485,271.867798 
	C1713.766113,273.355469 1705.295776,276.459991 1698.283447,283.204987 
	C1692.141235,289.112946 1689.606445,296.647644 1688.447266,304.653870 
	C1716.538330,304.653870 1744.735596,304.653870 1773.871948,304.653870 
	C1772.812256,301.192047 1771.930542,298.311798 1771.002197,294.615723 
z"/>
<path fill="#FFFFFF" opacity="1.000000" stroke="none" 
	d="
M1151.208740,395.292969 
	C1139.805054,404.867554 1127.285278,411.805237 1113.183838,415.201233 
	C1103.613892,417.505920 1093.762207,419.230530 1083.953369,419.811615 
	C1070.185059,420.627258 1056.353394,420.296082 1042.751953,417.039062 
	C1026.209839,413.077789 1011.117493,406.569122 998.307495,394.936981 
	C984.307617,382.224304 975.377625,366.572571 972.345398,348.262543 
	C969.010498,328.125244 969.556396,307.976013 977.752014,288.562958 
	C989.736633,260.174805 1012.052124,244.882629 1041.000977,238.144531 
	C1049.346924,236.201920 1058.091553,235.941284 1066.664429,235.010620 
	C1085.894775,232.923035 1104.591187,235.689041 1122.696045,242.078323 
	C1142.886597,249.203613 1158.234741,262.351410 1167.959351,281.486145 
	C1173.598145,292.581421 1177.447144,304.359863 1178.021484,316.997955 
	C1178.394043,325.193176 1178.954468,333.379852 1179.454224,341.972717 
	C1129.870605,341.972717 1081.132690,341.972717 1032.411743,341.972717 
	C1031.702759,359.461731 1042.397583,374.769318 1059.074219,379.723053 
	C1083.060913,386.848206 1106.692383,379.184845 1116.639160,356.796753 
	C1131.891846,365.617920 1147.108398,374.418182 1163.058838,383.642944 
	C1158.755127,387.865417 1155.104492,391.447144 1151.208740,395.292969 
M1115.977295,293.758759 
	C1112.227173,289.163910 1109.264282,283.441254 1104.586304,280.175507 
	C1087.188354,268.029907 1068.709717,268.618958 1050.297852,278.033875 
	C1040.395142,283.097626 1033.248291,295.700439 1034.490356,304.830139 
	C1062.586548,304.830139 1090.697632,304.830139 1119.226318,304.830139 
	C1118.120117,301.225006 1117.096069,297.888092 1115.977295,293.758759 
z"/>
<path fill="#FFFFFF" opacity="1.000000" stroke="none" 
	d="
M1246.000000,404.971649 
	C1246.000000,408.447632 1246.000000,411.428925 1246.000000,414.703339 
	C1228.065308,414.703339 1210.326660,414.703339 1192.293213,414.703339 
	C1192.293213,361.391022 1192.293213,307.987732 1192.293213,254.291962 
	C1209.944824,254.291962 1227.684082,254.291962 1245.757812,254.291962 
	C1245.757812,257.285400 1245.757812,260.371185 1245.757812,264.531586 
	C1250.790283,260.680695 1255.112427,257.393097 1259.413696,254.078445 
	C1272.672852,243.860519 1287.624268,238.565018 1304.323608,236.794113 
	C1317.265869,235.421646 1329.753052,236.765167 1341.999756,240.117996 
	C1364.258789,246.211945 1381.241821,260.746033 1384.925293,285.309418 
	C1386.088013,293.062256 1386.862793,300.949371 1386.909180,308.780426 
	C1387.117676,343.942932 1387.000000,379.107422 1387.000000,414.635559 
	C1369.203979,414.635559 1351.463501,414.635559 1333.000000,414.635559 
	C1333.000000,413.194122 1333.000000,411.449158 1333.000000,409.704193 
	C1333.000000,384.205597 1333.270264,358.702637 1332.862671,333.210571 
	C1332.706787,323.459351 1331.569092,313.632080 1329.865845,304.018982 
	C1327.368896,289.925201 1317.107544,282.230957 1302.834717,280.835724 
	C1290.346680,279.614899 1278.592773,281.095154 1267.700317,287.117065 
	C1254.817871,294.239197 1247.678955,305.814606 1247.184204,320.239380 
	C1246.221924,348.299103 1246.333374,376.395630 1246.000000,404.971649 
z"/>
<path fill="#FFFFFF" opacity="1.000000" stroke="none" 
	d="
M1901.000000,367.000000 
	C1901.000000,383.135834 1901.000000,398.771637 1901.000000,414.703308 
	C1882.740967,414.703308 1864.677490,414.703308 1846.306396,414.703308 
	C1846.306396,361.442963 1846.306396,308.064941 1846.306396,254.343292 
	C1864.299316,254.343292 1882.495361,254.343292 1900.979492,254.343292 
	C1900.979492,256.501373 1900.979492,258.603424 1900.979492,262.327423 
	C1919.256836,241.233963 1940.367065,230.307785 1967.853760,236.404144 
	C1967.853760,251.404633 1967.853760,266.362579 1967.853760,282.000000 
	C1962.493042,282.000000 1957.071533,282.106476 1951.655518,281.978790 
	C1938.709595,281.673615 1926.773926,284.978912 1917.116821,293.619812 
	C1909.528198,300.409821 1904.545044,309.452393 1903.178955,319.589935 
	C1901.735596,330.300171 1901.579834,341.191437 1901.040894,352.012573 
	C1900.800903,356.830444 1901.000000,361.670166 1901.000000,367.000000 
z"/>
<path fill="#FFFFFF" opacity="1.000000" stroke="none" 
	d="
M958.000000,216.000305 
	C958.000000,282.472931 958.000000,348.445648 958.000000,414.709076 
	C940.054199,414.709076 922.316101,414.709076 904.288208,414.709076 
	C904.288208,342.050049 904.288208,269.316162 904.288208,196.290955 
	C921.945801,196.290955 939.683899,196.290955 958.000000,196.290955 
	C958.000000,202.636093 958.000000,209.068253 958.000000,216.000305 
z"/>
<path fill="#FFFFFF" opacity="1.000000" stroke="none" 
	d="
M2037.292603,220.683868 
	C2038.739868,232.355576 2031.484253,242.320847 2021.004639,244.036407 
	C2005.901855,246.508804 1997.701294,237.874847 1995.057617,225.979111 
	C1993.265259,217.913788 2000.420898,206.431396 2009.148560,203.367065 
	C2020.589966,199.349884 2032.325195,205.173523 2036.728882,216.390198 
	C2037.190308,217.565353 2036.955322,219.013885 2037.292603,220.683868 
M2012.214355,239.741898 
	C2017.458130,240.437851 2022.508423,240.341141 2026.960449,235.963181 
	C2024.472778,235.963181 2022.360840,235.963181 2021.118408,235.963181 
	C2018.927734,233.012360 2017.202515,230.688416 2015.477295,228.364456 
	C2015.059326,228.621750 2014.641357,228.879044 2014.223389,229.136322 
	C2014.077148,231.361893 2013.930786,233.587448 2013.789673,235.733185 
	C2011.715332,235.733185 2009.983276,235.733185 2007.947510,235.733185 
	C2007.947510,227.387344 2007.947510,219.302963 2007.947510,211.178284 
	C2002.998779,211.924438 2000.288086,215.691727 2000.000000,221.837173 
	C1999.593872,230.503677 2003.955200,236.983810 2012.214355,239.741898 
M2008.538330,208.936142 
	C2008.185059,209.187439 2007.831787,209.438736 2007.478516,209.690063 
	C2007.577515,209.758438 2007.671387,209.877289 2007.776245,209.887863 
	C2011.510376,210.265228 2015.267944,210.483597 2018.974121,211.042892 
	C2022.690186,211.603653 2025.678589,213.243454 2024.953003,217.743393 
	C2024.489990,220.614944 2023.572021,223.413101 2022.651611,227.062546 
	C2023.973022,229.135330 2025.909302,232.172546 2028.003906,235.458328 
	C2032.716309,230.428085 2034.234375,225.021332 2032.424683,218.971207 
	C2030.025879,210.951675 2021.977417,203.814438 2008.538330,208.936142 
M2018.570435,219.943527 
	C2019.763184,215.665817 2017.119141,215.913574 2014.304443,216.084045 
	C2014.304443,218.204803 2014.304443,220.048203 2014.304443,222.742630 
	C2015.936157,221.757126 2016.962158,221.137405 2018.570435,219.943527 
z"/>
<path fill="#000000" opacity="1.000000" stroke="none" 
	d="
M552.022583,285.905457 
	C554.942139,297.898163 557.443848,309.491699 555.018921,321.517365 
	C553.332031,329.882660 551.938538,338.313049 550.031799,346.626709 
	C547.141907,359.226746 540.645813,370.229462 532.983032,380.326477 
	C515.640442,403.178375 493.077087,418.842407 465.506439,427.131958 
	C454.603271,430.410217 443.516510,432.152222 432.133667,433.216095 
	C413.932800,434.917145 396.487976,432.190582 379.267212,426.998657 
	C355.898163,419.953064 335.880402,407.251892 319.745056,389.055176 
	C305.184998,372.635040 295.631805,353.651642 291.828552,331.615295 
	C287.345032,305.637451 292.275299,281.647797 304.637421,258.933044 
	C315.165344,239.588654 330.588196,224.794067 349.260834,213.304932 
	C365.193787,203.501495 382.514069,196.779358 400.902802,194.353348 
	C413.677460,192.667999 426.876892,193.488327 439.840454,194.126541 
	C456.797577,194.961349 472.707489,200.344788 487.709686,208.061203 
	C498.987213,213.861816 509.345978,221.011566 518.619873,229.907806 
	C534.853699,245.480667 546.378296,263.648651 552.022583,285.905457 
M508.972260,329.164948 
	C509.646301,319.349121 511.879517,309.338379 510.681824,299.756500 
	C507.865570,277.226379 495.707092,259.592682 476.983612,247.134277 
	C457.504547,234.173096 435.857239,229.705933 412.445435,232.868958 
	C395.110748,235.210953 379.638672,241.590057 366.726410,253.017410 
	C346.225433,271.160706 336.685760,294.161041 341.162537,321.578186 
	C344.775269,343.703827 357.160217,360.841614 375.808960,372.854431 
	C397.426453,386.779510 421.451447,390.572815 446.348633,384.838287 
	C476.710022,377.845123 498.177917,359.936432 508.972260,329.164948 
z"/>
<path fill="#000000" opacity="1.000000" stroke="none" 
	d="
M772.311768,282.000793 
	C782.370728,280.554382 791.912781,281.053436 801.125000,284.062317 
	C815.448059,288.740448 825.531372,297.715698 830.111755,312.663269 
	C834.444824,326.803955 833.822815,340.419281 827.647522,353.724426 
	C822.515137,364.782684 813.625671,371.798065 802.134399,375.348663 
	C787.379639,379.907593 772.887390,379.703583 758.466003,373.193665 
	C745.039917,367.133026 737.347473,356.415741 734.251282,342.920776 
	C730.353760,325.933044 732.850403,309.459167 744.841980,295.891785 
	C749.960693,290.100464 756.888062,286.264282 764.461243,284.017090 
	C766.912170,283.289886 769.395142,282.670349 772.311768,282.000793 
z"/>
<path fill="#000000" opacity="1.000000" stroke="none" 
	d="
M1512.297363,378.000977 
	C1502.546875,379.197113 1493.579346,377.595215 1485.109741,373.945099 
	C1468.888794,366.954315 1460.730835,354.297211 1458.859619,336.769501 
	C1457.444336,323.511505 1459.291016,311.312592 1467.003662,300.358124 
	C1475.088867,288.874756 1486.734009,283.755951 1500.350830,281.911316 
	C1509.738770,280.639496 1518.841187,281.521027 1527.686646,284.367676 
	C1543.420288,289.431091 1553.265381,300.500824 1556.853271,316.414154 
	C1560.249146,331.475555 1558.879028,346.386780 1549.750366,359.359619 
	C1543.188599,368.684906 1533.655640,374.413574 1522.450317,376.936493 
	C1519.296875,377.646454 1515.987671,377.664612 1512.297363,378.000977 
z"/>
<path fill="#000000" opacity="1.000000" stroke="none" 
	d="
M1771.025635,295.023621 
	C1771.930542,298.311798 1772.812256,301.192047 1773.871948,304.653870 
	C1744.735596,304.653870 1716.538330,304.653870 1688.447266,304.653870 
	C1689.606445,296.647644 1692.141235,289.112946 1698.283447,283.204987 
	C1705.295776,276.459991 1713.766113,273.355469 1723.297485,271.867798 
	C1733.613281,270.257751 1743.141357,271.827972 1752.602905,275.877686 
	C1761.401001,279.643372 1767.632935,285.654907 1771.025635,295.023621 
z"/>
<path fill="#000000" opacity="1.000000" stroke="none" 
	d="
M1116.024658,294.154968 
	C1117.096069,297.888092 1118.120117,301.225006 1119.226318,304.830139 
	C1090.697632,304.830139 1062.586548,304.830139 1034.490356,304.830139 
	C1033.248291,295.700439 1040.395142,283.097626 1050.297852,278.033875 
	C1068.709717,268.618958 1087.188354,268.029907 1104.586304,280.175507 
	C1109.264282,283.441254 1112.227173,289.163910 1116.024658,294.154968 
z"/>
<path fill="#000000" opacity="1.000000" stroke="none" 
	d="
M2011.926636,239.436096 
	C2003.955200,236.983810 1999.593872,230.503677 2000.000000,221.837173 
	C2000.288086,215.691727 2002.998779,211.924438 2007.947510,211.178284 
	C2007.947510,219.302963 2007.947510,227.387344 2007.947510,235.733185 
	C2009.983276,235.733185 2011.715332,235.733185 2013.789673,235.733185 
	C2013.930786,233.587448 2014.077148,231.361893 2014.223389,229.136322 
	C2014.641357,228.879044 2015.059326,228.621750 2015.477295,228.364456 
	C2017.202515,230.688416 2018.927734,233.012360 2021.118408,235.963181 
	C2022.360840,235.963181 2024.472778,235.963181 2026.960449,235.963181 
	C2022.508423,240.341141 2017.458130,240.437851 2011.926636,239.436096 
z"/>
<path fill="#000000" opacity="1.000000" stroke="none" 
	d="
M2008.831543,208.642471 
	C2021.977417,203.814438 2030.025879,210.951675 2032.424683,218.971207 
	C2034.234375,225.021332 2032.716309,230.428085 2028.003906,235.458328 
	C2025.909302,232.172546 2023.973022,229.135330 2022.651611,227.062546 
	C2023.572021,223.413101 2024.489990,220.614944 2024.953003,217.743393 
	C2025.678589,213.243454 2022.690186,211.603653 2018.974121,211.042892 
	C2015.267944,210.483597 2011.510376,210.265228 2007.776245,209.887863 
	C2007.671387,209.877289 2007.577515,209.758438 2007.478516,209.690048 
	C2007.831787,209.438736 2008.185059,209.187439 2008.831543,208.642471 
z"/>
<path fill="#000000" opacity="1.000000" stroke="none" 
	d="
M2018.279297,220.230606 
	C2016.962158,221.137405 2015.936157,221.757126 2014.304443,222.742630 
	C2014.304443,220.048203 2014.304443,218.204803 2014.304443,216.084045 
	C2017.119141,215.913574 2019.763184,215.665817 2018.279297,220.230606 
z"/>
<path fill="#FFFFFF" opacity="1.000000" stroke="none" 
	d="
M508.784790,329.544037 
	C498.177917,359.936432 476.710022,377.845123 446.348633,384.838287 
	C421.451447,390.572815 397.426453,386.779510 375.808960,372.854431 
	C357.160217,360.841614 344.775269,343.703827 341.162537,321.578186 
	C336.685760,294.161041 346.225433,271.160706 366.726410,253.017410 
	C379.638672,241.590057 395.110748,235.210953 412.445435,232.868958 
	C435.857239,229.705933 457.504547,234.173096 476.983612,247.134277 
	C495.707092,259.592682 507.865570,277.226379 510.681824,299.756500 
	C511.879517,309.338379 509.646301,319.349121 508.784790,329.544037 
z"/>
</svg>